<?xml version="1.0" standalone="no"?>
<!DOCTYPE svg PUBLIC "-//W3C//DTD SVG 20010904//EN"
 "http://www.w3.org/TR/2001/REC-SVG-20010904/DTD/svg10.dtd">
<svg version="1.0" xmlns="http://www.w3.org/2000/svg"
 width="1280.000000pt" height="1188.000000pt" viewBox="0 0 1280.000000 1188.000000"
 preserveAspectRatio="xMidYMid meet">
<g transform="translate(0.000000,1188.000000) scale(0.100000,-0.100000)"
fill="#000000" stroke="none">
<path d="M7939 11876 c-2 -2 -65 -11 -139 -20 -396 -48 -766 -185 -1110 -411
-344 -225 -665 -558 -879 -909 -193 -316 -2635 -4510 -2703 -4642 -243 -471
-386 -935 -429 -1388 -15 -159 -7 -435 16 -566 93 -525 388 -869 842 -982 73
-18 116 -22 253 -22 144 1 180 4 285 28 151 35 277 82 428 158 492 250 993
749 1364 1358 260 427 1301 2225 1320 2280 26 76 30 187 9 266 -33 126 -121
231 -245 292 -74 37 -77 37 -195 37 -115 0 -124 -2 -186 -31 -78 -37 -130 -78
-175 -136 -19 -24 -312 -520 -653 -1103 -340 -583 -644 -1100 -674 -1150 -314
-505 -742 -914 -1098 -1046 -68 -26 -101 -32 -167 -33 -77 -1 -83 1 -112 28
-37 35 -68 106 -88 200 -19 90 -12 379 12 510 58 315 193 679 368 990 158 280
2583 4426 2642 4516 34 52 83 122 109 155 60 78 222 242 306 310 216 176 480
304 750 362 66 14 126 18 270 17 169 0 194 -3 285 -28 498 -136 824 -569 864
-1149 23 -343 -49 -676 -218 -1002 -38 -71 -598 -1037 -1246 -2145 -648 -1108
-1405 -2404 -1683 -2880 -960 -1644 -882 -1519 -1057 -1695 -265 -265 -590
-428 -975 -491 -144 -24 -385 -21 -543 5 -151 26 -317 77 -442 135 -101 48
-756 420 -880 500 -387 252 -657 663 -741 1131 -25 139 -29 358 -10 496 27
190 68 330 145 494 26 55 719 1250 1541 2655 821 1405 1593 2727 1716 2937
125 214 233 410 245 445 17 52 20 81 17 163 -3 87 -8 109 -35 168 -111 236
-383 332 -622 220 -127 -60 -101 -20 -976 -1518 -439 -753 -1208 -2070 -1708
-2925 -501 -855 -938 -1609 -972 -1675 -368 -715 -376 -1579 -21 -2310 120
-247 242 -429 424 -631 130 -144 336 -319 507 -429 56 -36 655 -382 810 -468
305 -168 662 -280 1012 -318 185 -19 546 -7 723 25 734 131 1354 530 1757
1131 63 94 3740 6383 3824 6540 107 200 213 489 263 715 53 241 61 325 60 620
0 252 -3 287 -27 420 -62 338 -172 622 -343 882 -317 480 -826 804 -1387 883
-62 8 -140 20 -173 25 -60 10 -247 14 -255 6z"/>
</g>
</svg>
