<svg aria-hidden="true" style="position: absolute; width: 0; height: 0; overflow: hidden;" version="1.1" xmlns="http://www.w3.org/2000/svg" xmlns:xlink="http://www.w3.org/1999/xlink">
<defs>
<symbol id="icon-98520" viewBox="0 0 34 32">
<path d="M21.384 0.011c-0.005 0.005-0.175 0.030-0.374 0.054-1.067 0.129-2.063 0.498-2.99 1.107-0.927 0.606-1.791 1.503-2.368 2.449-0.52 0.851-7.098 12.148-7.281 12.504-0.655 1.269-1.040 2.519-1.156 3.739-0.040 0.428-0.019 1.172 0.043 1.525 0.25 1.414 1.045 2.341 2.268 2.645 0.197 0.049 0.312 0.059 0.681 0.059 0.388-0.003 0.485-0.011 0.768-0.075 0.407-0.094 0.746-0.221 1.153-0.426 1.325-0.673 2.675-2.018 3.674-3.658 0.7-1.15 3.504-5.993 3.556-6.141 0.070-0.205 0.081-0.504 0.024-0.716-0.089-0.339-0.326-0.622-0.66-0.787-0.199-0.1-0.207-0.1-0.525-0.1-0.31 0-0.334 0.005-0.501 0.084-0.21 0.1-0.35 0.21-0.471 0.366-0.051 0.065-0.84 1.401-1.759 2.971-0.916 1.57-1.735 2.963-1.816 3.098-0.846 1.36-1.999 2.462-2.958 2.817-0.183 0.070-0.272 0.086-0.45 0.089-0.207 0.003-0.224-0.003-0.302-0.075-0.1-0.094-0.183-0.286-0.237-0.539-0.051-0.242-0.032-1.021 0.032-1.374 0.156-0.849 0.52-1.829 0.991-2.667 0.426-0.754 6.958-11.922 7.117-12.164 0.092-0.14 0.224-0.329 0.294-0.418 0.162-0.21 0.598-0.652 0.824-0.835 0.582-0.474 1.293-0.819 2.020-0.975 0.178-0.038 0.339-0.049 0.727-0.046 0.455 0 0.523 0.008 0.768 0.075 1.341 0.366 2.22 1.533 2.327 3.095 0.062 0.924-0.132 1.821-0.587 2.699-0.102 0.191-1.611 2.793-3.356 5.778s-3.785 6.475-4.533 7.758c-2.586 4.428-2.376 4.092-2.847 4.566-0.714 0.714-1.589 1.153-2.626 1.323-0.388 0.065-1.037 0.057-1.463-0.013-0.407-0.070-0.854-0.207-1.191-0.364-0.272-0.129-2.036-1.131-2.37-1.347-1.042-0.679-1.77-1.786-1.996-3.046-0.067-0.374-0.078-0.964-0.027-1.336 0.073-0.512 0.183-0.889 0.391-1.331 0.070-0.148 1.937-3.367 4.151-7.152 2.211-3.784 4.291-7.345 4.622-7.911 0.337-0.576 0.628-1.104 0.66-1.199 0.046-0.14 0.054-0.218 0.046-0.439-0.008-0.234-0.022-0.294-0.094-0.453-0.299-0.636-1.032-0.894-1.675-0.593-0.342 0.162-0.272 0.054-2.629 4.089-1.183 2.028-3.254 5.576-4.601 7.879-1.349 2.303-2.527 4.334-2.618 4.512-0.991 1.926-1.013 4.253-0.057 6.222 0.323 0.665 0.652 1.156 1.142 1.7 0.35 0.388 0.905 0.859 1.366 1.156 0.151 0.097 1.764 1.029 2.182 1.261 0.822 0.453 1.783 0.754 2.726 0.857 0.498 0.051 1.471 0.019 1.947-0.067 1.977-0.353 3.647-1.428 4.733-3.046 0.17-0.253 10.074-17.193 10.3-17.616 0.288-0.539 0.574-1.317 0.708-1.926 0.143-0.649 0.164-0.875 0.162-1.67 0-0.679-0.008-0.773-0.073-1.131-0.167-0.91-0.463-1.675-0.924-2.376-0.854-1.293-2.225-2.166-3.736-2.378-0.167-0.022-0.377-0.054-0.466-0.067-0.162-0.027-0.665-0.038-0.687-0.016z"></path>
</symbol>
</defs>
</svg>
